# xmcd CD database file
#
# Track frame offsets:
#	150
#	10407
#	25301
#	49783
#	58876
#	72729
#	88035
#	104878
#	123410
#	135818
#	145608
#	166995
#	184720
#	208588
#	220961
#	237132
#	250706
#	269015
#	287494
#	306471
#	317874
#	327098
#	342116
#
# Disc length: 4762 seconds
#
# Revision: 1
# Processed by: cddbd v1.4PL0 Copyright (c) Steve Scherf et al.
# Submitted via: CDex 1.50Beta6
#
DISCID=61129817
DTITLE=Various Artist - Christmas Jazz
DYEAR=2002
DGENRE=Jazz
TTITLE0=Diana Krall - Jingle Bells
TTITLE1=The Glenn Miller Orchestra - I'll Be Home for Christmas
TTITLE2=Jeanie Bryson -  Have Yourself A Merry Little Christmas 
TTITLE3=Chet Baker and Christopher Mason - It Came Upon A Midnight Clear
TTITLE4=Ella Fitzgerald - White Christmas
TTITLE5=The Glenn Miller Orchestra - The Twelve Days Of Christmas
TTITLE6=Harry Connick Jr. - Sleigh Ride
TTITLE7=The Manhattan Transfer - The Holiday Season (Medley)
TTITLE8=Chet Baker and Christopher Mason - Joy To The World
TTITLE9=Steve Tyrell - Santa Claus Is Coming To Town
TTITLE10=Stefan Scaggiari Trio - Angels We Have Heard on High
TTITLE11=Nancy Wilson - Let It Snow! Let It Snow! Let It Snow!
TTITLE12=Glenn Miller Orchestra - Yuletide Medley #2
TTITLE13=Mel Tormé - The Christmas Song
TTITLE14=Ella Fitzgerald - What Are You Doing New Year's Eve?
TTITLE15=The Glenn Miller Orchestra - Ode To Joy
TTITLE16=Nancy Wilson - Silver Bells
TTITLE17=The Glenn Miller Orchestra - Frosty the Snowman
TTITLE18=Steve Tyrell - This Time Of The Year
TTITLE19=The Glenn Miller Orchestra - Auld Lang Syne
TTITLE20=Maureen McGovern - Our First Christmas
TTITLE21=The Glenn Miller Orchestra - We Wish You A Merry Christmas
TTITLE22=Steve Tyrell - Baby, It's Cold Outside
EXTD=YEAR: 2002
EXTT0=
EXTT1=
EXTT2=
EXTT3=
EXTT4=
EXTT5=
EXTT6=
EXTT7=
EXTT8=
EXTT9=
EXTT10=
EXTT11=
EXTT12=
EXTT13=
EXTT14=
EXTT15=
EXTT16=
EXTT17=
EXTT18=
EXTT19=
EXTT20=
EXTT21=
EXTT22=
PLAYORDER=
